<svg width="95" height="102" viewBox="0 0 95 102" fill="none" xmlns="http://www.w3.org/2000/svg">
<path d="M8.82691 66.9375L85.3269 66.9375C86.9519 66.9375 88.2692 65.5104 88.2692 63.75V19.125C88.2692 17.3646 86.9519 15.9375 85.3269 15.9375L8.82691 15.9375C7.20192 15.9375 5.88461 17.3646 5.88461 19.125V63.75C5.88461 65.5104 7.20192 66.9375 8.82691 66.9375Z" stroke="#10B981" stroke-width="4" stroke-linejoin="round"/>
<path d="M17.6538 86.0625H76.5M11.7692 76.5H82.3846H11.7692Z" stroke="#10B981" stroke-width="4" stroke-linecap="round" stroke-linejoin="round"/>
<path d="M47.0769 57.375C55.2019 57.375 61.7885 50.2395 61.7885 41.4375C61.7885 32.6355 55.2019 25.5 47.0769 25.5C38.952 25.5 32.3654 32.6355 32.3654 41.4375C32.3654 50.2395 38.952 57.375 47.0769 57.375Z" stroke="#10B981" stroke-width="4" stroke-linecap="round" stroke-linejoin="round"/>
<path d="M88.2692 31.875C84.3675 31.875 80.6256 30.1959 77.8666 27.207C75.1077 24.2182 73.5577 20.1644 73.5577 15.9375M5.88461 31.875C7.81656 31.875 9.72959 31.4628 11.5145 30.6618C13.2994 29.8609 14.9211 28.6869 16.2872 27.207C17.6533 25.7271 18.737 23.9701 19.4763 22.0365C20.2156 20.1029 20.5962 18.0304 20.5962 15.9375M88.2692 51C84.3675 51 80.6256 52.6791 77.8666 55.668C75.1077 58.6568 73.5577 62.7106 73.5577 66.9375M5.88461 51C7.81656 51 9.72959 51.4122 11.5145 52.2132C13.2994 53.0141 14.9211 54.1881 16.2872 55.668C17.6533 57.1479 18.737 58.9049 19.4763 60.8385C20.2156 62.7721 20.5962 64.8446 20.5962 66.9375" stroke="#10B981" stroke-width="4" stroke-linecap="round" stroke-linejoin="round"/>
</svg>
