<svg width="408" height="102" viewBox="0 0 408 102" fill="none" xmlns="http://www.w3.org/2000/svg">
<path d="M8.82691 66.9375L85.3269 66.9375C86.9519 66.9375 88.2692 65.5104 88.2692 63.75V19.125C88.2692 17.3646 86.9519 15.9375 85.3269 15.9375L8.82691 15.9375C7.20192 15.9375 5.88461 17.3646 5.88461 19.125V63.75C5.88461 65.5104 7.20192 66.9375 8.82691 66.9375Z" stroke="#10B981" stroke-width="4" stroke-linejoin="round"/>
<path d="M17.6538 86.0625H76.5M11.7692 76.5H82.3846H11.7692Z" stroke="#10B981" stroke-width="4" stroke-linecap="round" stroke-linejoin="round"/>
<path d="M47.0769 57.375C55.2019 57.375 61.7885 50.2395 61.7885 41.4375C61.7885 32.6355 55.2019 25.5 47.0769 25.5C38.952 25.5 32.3654 32.6355 32.3654 41.4375C32.3654 50.2395 38.952 57.375 47.0769 57.375Z" stroke="#10B981" stroke-width="4" stroke-linecap="round" stroke-linejoin="round"/>
<path d="M88.2692 31.875C84.3675 31.875 80.6256 30.1959 77.8666 27.207C75.1077 24.2182 73.5577 20.1644 73.5577 15.9375M5.88461 31.875C7.81656 31.875 9.72959 31.4628 11.5145 30.6618C13.2994 29.8609 14.9211 28.6869 16.2872 27.207C17.6533 25.7271 18.737 23.9701 19.4763 22.0365C20.2156 20.1029 20.5962 18.0304 20.5962 15.9375M88.2692 51C84.3675 51 80.6256 52.6791 77.8666 55.668C75.1077 58.6568 73.5577 62.7106 73.5577 66.9375M5.88461 51C7.81656 51 9.72959 51.4122 11.5145 52.2132C13.2994 53.0141 14.9211 54.1881 16.2872 55.668C17.6533 57.1479 18.737 58.9049 19.4763 60.8385C20.2156 62.7721 20.5962 64.8446 20.5962 66.9375" stroke="#10B981" stroke-width="4" stroke-linecap="round" stroke-linejoin="round"/>
<path d="M106.722 75V28.728H123.49C129.549 28.728 134.04 29.7733 136.962 31.864C139.906 33.9547 141.378 36.952 141.378 40.856C141.378 43.16 140.792 45.1653 139.618 46.872C138.445 48.5573 136.354 50.0293 133.346 51.288C135.928 51.9707 137.869 52.92 139.17 54.136C140.472 55.3307 141.346 56.664 141.794 58.136C142.242 59.5867 142.466 61.0267 142.466 62.456C142.466 66.7227 141.005 69.88 138.082 71.928C135.181 73.976 130.573 75 124.258 75H106.722ZM116.034 47.864H124.962C126.861 47.864 128.568 47.4053 130.082 46.488C131.597 45.5707 132.354 44.0987 132.354 42.072C132.354 40.0667 131.597 38.552 130.082 37.528C128.589 36.4827 126.669 35.96 124.322 35.96H116.034V47.864ZM116.034 67.768H124.45C127.245 67.768 129.368 67.2027 130.818 66.072C132.269 64.9413 132.994 63.4267 132.994 61.528C132.994 59.48 132.226 57.9333 130.69 56.888C129.176 55.8213 127.266 55.288 124.962 55.288H116.034V67.768ZM158.951 75.64C155.772 75.64 153.116 74.7653 150.983 73.016C148.85 71.2667 147.783 68.7707 147.783 65.528C147.783 61.9013 149.127 59.1493 151.815 57.272C154.524 55.3733 158.812 54.392 164.679 54.328L168.807 54.264V52.28C168.807 50.7653 168.359 49.6027 167.463 48.792C166.588 47.96 165.223 47.5547 163.367 47.576C162.002 47.5973 160.7 47.9173 159.463 48.536C158.247 49.1547 157.415 50.232 156.967 51.768H149.191C149.362 48.184 150.802 45.5387 153.511 43.832C156.22 42.1253 159.644 41.272 163.783 41.272C168.86 41.272 172.455 42.2107 174.567 44.088C176.7 45.944 177.767 48.4933 177.767 51.736V75H169.959L169.191 69.304C168.06 71.6933 166.642 73.3467 164.935 74.264C163.25 75.1813 161.255 75.64 158.951 75.64ZM162.087 69.496C163.218 69.496 164.295 69.24 165.319 68.728C166.343 68.1947 167.175 67.512 167.815 66.68C168.476 65.8267 168.807 64.92 168.807 63.96V59.064L165.447 59.128C163.89 59.1493 162.439 59.3307 161.095 59.672C159.751 60.0133 158.663 60.5893 157.831 61.4C157.02 62.1893 156.615 63.256 156.615 64.6C156.615 66.136 157.138 67.3413 158.183 68.216C159.25 69.0693 160.551 69.496 162.087 69.496ZM186.038 75V41.912H195.222V46.584C195.99 45.3893 197.132 44.2693 198.646 43.224C200.161 42.1573 202.22 41.624 204.822 41.624C206.849 41.624 208.737 42.0187 210.486 42.808C212.257 43.5973 213.686 44.8453 214.774 46.552C215.862 48.2373 216.406 50.4453 216.406 53.176V75H207.062V54.328C207.062 52.536 206.518 51.192 205.43 50.296C204.364 49.4 203.073 48.952 201.558 48.952C200.022 48.952 198.604 49.3573 197.302 50.168C196.022 50.9787 195.382 52.1947 195.382 53.816V75H186.038ZM255.944 75H246.632L237.704 60.728L233.32 65.4V75H223.976V27.448H233.32V55.64L245.48 41.912H255.528L243.496 55.096L255.944 75ZM279.723 75.64C277.441 75.64 275.201 75.352 273.003 74.776C270.806 74.2 268.79 73.336 266.955 72.184C265.142 71.032 263.649 69.592 262.475 67.864C261.302 66.136 260.598 64.1093 260.363 61.784H269.931C270.401 63.8747 271.51 65.4853 273.259 66.616C275.03 67.7467 277.174 68.312 279.691 68.312C282.23 68.312 284.417 67.832 286.251 66.872C288.107 65.912 289.035 64.4507 289.035 62.488C289.035 60.7387 288.289 59.4373 286.795 58.584C285.302 57.7307 283.435 57.08 281.195 56.632L273.195 55C269.697 54.3387 266.923 52.952 264.875 50.84C262.827 48.728 261.771 45.8907 261.707 42.328C261.686 39.4267 262.454 36.92 264.011 34.808C265.59 32.6747 267.723 31.032 270.411 29.88C273.121 28.728 276.15 28.152 279.499 28.152C283.489 28.152 286.838 28.7813 289.547 30.04C292.278 31.2773 294.347 32.9627 295.755 35.096C297.185 37.208 297.921 39.5653 297.963 42.168H288.587C288.331 39.736 287.382 38.0293 285.739 37.048C284.097 36.0667 282.07 35.576 279.659 35.576C277.163 35.576 275.179 36.1093 273.707 37.176C272.235 38.2213 271.499 39.576 271.499 41.24C271.499 42.584 271.937 43.672 272.811 44.504C273.707 45.336 275.393 46.0187 277.867 46.552L285.803 48.184C288.619 48.7387 290.87 49.56 292.555 50.648C294.241 51.736 295.499 52.9627 296.331 54.328C297.185 55.6933 297.739 57.0907 297.995 58.52C298.273 59.928 298.411 61.2293 298.411 62.424C298.411 64.92 297.633 67.1707 296.075 69.176C294.518 71.16 292.331 72.7387 289.515 73.912C286.721 75.064 283.457 75.64 279.723 75.64ZM314.701 75.64C311.522 75.64 308.866 74.7653 306.733 73.016C304.6 71.2667 303.533 68.7707 303.533 65.528C303.533 61.9013 304.877 59.1493 307.565 57.272C310.274 55.3733 314.562 54.392 320.429 54.328L324.557 54.264V52.28C324.557 50.7653 324.109 49.6027 323.213 48.792C322.338 47.96 320.973 47.5547 319.117 47.576C317.752 47.5973 316.45 47.9173 315.213 48.536C313.997 49.1547 313.165 50.232 312.717 51.768H304.941C305.112 48.184 306.552 45.5387 309.261 43.832C311.97 42.1253 315.394 41.272 319.533 41.272C324.61 41.272 328.205 42.2107 330.317 44.088C332.45 45.944 333.517 48.4933 333.517 51.736V75H325.709L324.941 69.304C323.81 71.6933 322.392 73.3467 320.685 74.264C319 75.1813 317.005 75.64 314.701 75.64ZM317.837 69.496C318.968 69.496 320.045 69.24 321.069 68.728C322.093 68.1947 322.925 67.512 323.565 66.68C324.226 65.8267 324.557 64.92 324.557 63.96V59.064L321.197 59.128C319.64 59.1493 318.189 59.3307 316.845 59.672C315.501 60.0133 314.413 60.5893 313.581 61.4C312.77 62.1893 312.365 63.256 312.365 64.6C312.365 66.136 312.888 67.3413 313.933 68.216C315 69.0693 316.301 69.496 317.837 69.496ZM361.668 41.912V48.408H354.692V75H345.348V48.408H339.236V41.912H345.348V37.144C345.348 34.4773 346.127 32.408 347.684 30.936C349.263 29.464 351.492 28.728 354.372 28.728H361.956L361.988 34.936H357.636C356.441 34.936 355.62 35.2347 355.172 35.832C354.745 36.408 354.532 37.368 354.532 38.712V41.912H361.668ZM374.656 60.6C374.635 63.1387 375.243 65.1547 376.48 66.648C377.717 68.1413 379.456 68.888 381.696 68.888C383.296 68.888 384.693 68.5467 385.888 67.864C387.104 67.1813 387.947 66.0613 388.416 64.504H396.832C396.469 66.8507 395.531 68.856 394.016 70.52C392.523 72.184 390.709 73.4533 388.576 74.328C386.443 75.2027 384.224 75.64 381.92 75.64C378.635 75.64 375.755 74.9573 373.28 73.592C370.805 72.2053 368.875 70.2533 367.488 67.736C366.101 65.2187 365.408 62.2533 365.408 58.84C365.408 55.5333 366.037 52.5573 367.296 49.912C368.555 47.2453 370.379 45.144 372.768 43.608C375.179 42.0507 378.069 41.272 381.44 41.272C384.811 41.272 387.637 41.9867 389.92 43.416C392.224 44.824 393.952 46.7973 395.104 49.336C396.277 51.8533 396.864 54.7653 396.864 58.072V60.6H374.656ZM374.624 55.032H388.128C388.128 53.0267 387.573 51.32 386.464 49.912C385.355 48.504 383.68 47.8 381.44 47.8C379.989 47.8 378.752 48.152 377.728 48.856C376.725 49.56 375.957 50.4667 375.424 51.576C374.891 52.664 374.624 53.816 374.624 55.032Z" fill="white"/>
</svg>
